<?xml version="1.0" standalone="no"?>
<!DOCTYPE svg PUBLIC "-//W3C//DTD SVG 1.1//EN" "http://www.w3.org/Graphics/SVG/1.1/DTD/svg11.dtd" >
<svg xmlns="http://www.w3.org/2000/svg" xmlns:xlink="http://www.w3.org/1999/xlink" version="1.1">
<metadata></metadata>
<defs>
<font id="8-bit_arcade_outmedium" horiz-adv-x="1024" >
<font-face units-per-em="2048" ascent="1536" descent="-512" />
<missing-glyph horiz-adv-x="640" />
<glyph horiz-adv-x="0" />
<glyph unicode="&#xd;" horiz-adv-x="682" />
<glyph unicode=" "  horiz-adv-x="640" />
<glyph unicode="&#x09;" horiz-adv-x="640" />
<glyph unicode="&#xa0;" horiz-adv-x="640" />
<glyph unicode="0" d="M0 128v128h128v-128h640v128h128v384h-128v128h128v-128h128v-512h-128v-128h-768v128h-128zM384 256v384h128v-384h-128z" />
<glyph unicode="1" horiz-adv-x="640" d="M0 384v128h128v-128h-128zM128 0v128h384v640h128v-768h-512z" />
<glyph unicode="2" d="M0 0v128h896v128h-384v128h256v128h128v128h-128v128h128v-128h128v-256h-128v-128h128v-256h-1024zM0 384v128h384v-128h-384zM384 512v128h128v-128h-128z" />
<glyph unicode="3" d="M0 128v128h128v-128h640v128h128v384h-128v128h128v-128h128v-512h-128v-128h-768v128h-128zM0 384v128h384v-128h128v-128h-128v128h-384zM384 512v128h128v-128h-128z" />
<glyph unicode="4" d="M0 128v128h384v-128h384v128h128v128h-128v384h128v-384h128v-256h-128v-128h-512v128h-384zM256 384v128h128v-128h-128z" />
<glyph unicode="5" d="M0 0v128h768v128h128v128h-128v128h-384v128h512v128h128v-256h-128v-128h128v-256h-128v-128h-896zM0 256v128h512v-128h-512z" />
<glyph unicode="6" d="M0 128v128h128v-128h640v128h128v128h-128v128h-384v128h384v128h128v-384h128v-256h-128v-128h-768v128h-128zM384 256v128h128v-128h-128z" />
<glyph unicode="7" d="M0 512v128h512v-128h-512zM256 0v128h384v384h128v128h128v128h128v-256h-128v-128h-128v-384h-512z" />
<glyph unicode="8" d="M0 128v128h128v-128h640v128h128v384h-128v128h128v-128h128v-512h-128v-128h-768v128h-128zM384 256v128h128v-128h-128zM384 512v128h128v-128h-128z" />
<glyph unicode="9" d="M0 384v128h128v-128h384v-128h-384v128h-128zM128 0v128h640v128h128v384h-128v128h128v-128h128v-512h-128v-128h-768zM384 512v128h128v-128h-128z" />
<glyph unicode="A" d="M0 0v128h384v128h128v-128h384v512h-128v128h128v-128h128v-640h-1024zM384 384v256h128v-256h-128z" />
<glyph unicode="B" d="M0 0v128h768v128h128v128h-128v128h128v128h-128v128h128v-128h128v-512h-128v-128h-896zM384 256v128h128v-128h-128zM384 512v128h128v-128h-128z" />
<glyph unicode="C" d="M0 128v128h128v-128h640v128h128v128h-384v-128h-128v384h128v-128h384v128h-128v128h128v-128h128v-512h-128v-128h-768v128h-128z" />
<glyph unicode="D" d="M0 0v128h768v128h128v384h-128v128h128v-128h128v-512h-128v-128h-896zM384 256v384h128v-384h-128z" />
<glyph unicode="E" d="M0 0v128h896v128h-512v128h384v128h-384v128h512v128h128v-256h-128v-256h128v-256h-1024z" />
<glyph unicode="F" d="M0 0v128h384v256h384v128h-384v128h512v128h128v-256h-128v-256h-384v-256h-512z" />
<glyph unicode="G" d="M0 128v128h128v-128h640v128h128v256h-384v-128h128v-128h-256v384h384v128h128v-128h128v-512h-128v-128h-768v128h-128z" />
<glyph unicode="H" d="M0 0v128h384v256h128v-256h384v640h128v-768h-1024zM384 512v256h128v-256h-128z" />
<glyph unicode="I" horiz-adv-x="512" d="M0 0v128h384v640h128v-768h-512z" />
<glyph unicode="J" d="M0 128v128h128v-128h640v128h128v512h128v-640h-128v-128h-768v128h-128zM384 256v128h128v-128h-128z" />
<glyph unicode="K" d="M0 0v128h384v128h128v-128h384v128h-128v128h-128v128h128v128h128v128h128v-256h-128v-256h128v-256h-1024zM384 640v128h128v-128h-128z" />
<glyph unicode="L" d="M0 0v128h896v128h128v-256h-1024zM384 256v512h128v-512h-128z" />
<glyph unicode="M" d="M0 0v128h256v256h128v-128h128v128h128v-256h256v640h128v-768h-384v128h-256v-128h-384zM256 640v128h128v-128h128v-128h-128v128h-128z" />
<glyph unicode="N" d="M0 0v128h256v256h128v-128h256v-128h256v640h128v-768h-384v128h-256v-128h-384zM256 640v128h128v-128h-128zM512 512v128h128v-128h-128z" />
<glyph unicode="O" d="M0 128v128h128v-128h640v128h128v384h-128v128h128v-128h128v-512h-128v-128h-768v128h-128zM384 256v384h128v-384h-128z" />
<glyph unicode="P" d="M0 0v128h384v128h384v128h128v256h-128v128h128v-128h128v-384h-128v-128h-384v-128h-512zM384 384v256h128v-256h-128z" />
<glyph unicode="Q" d="M0 128v128h384v-128h512v128h-128v128h128v256h-128v128h128v-128h128v-640h-640v128h-384zM384 384v256h128v-256h-128z" />
<glyph unicode="R" d="M0 0v128h384v128h128v-128h384v128h-128v128h128v256h-128v128h128v-128h128v-640h-1024zM384 384v256h128v-256h-128z" />
<glyph unicode="S" d="M0 0v128h768v128h128v128h-128v128h-384v128h512v128h128v-256h-128v-128h128v-256h-128v-128h-896zM0 384v128h128v-128h384v-128h-384v128h-128z" />
<glyph unicode="T" d="M0 512v128h256v-128h-256zM128 0v128h640v128h-128v384h256v128h128v-256h-256v-256h128v-256h-768z" />
<glyph unicode="U" d="M0 128v128h128v-128h640v128h128v512h128v-640h-128v-128h-768v128h-128zM384 256v512h128v-512h-128z" />
<glyph unicode="V" d="M0 256v128h128v-128h128v-128h384v128h128v128h128v384h128v-512h-128v-128h-128v-128h-512v128h-128v128h-128zM384 384v384h128v-384h-128z" />
<glyph unicode="W" d="M0 128v128h128v-128h256v128h128v-128h256v128h128v512h128v-640h-128v-128h-768v128h-128zM256 512v256h128v-256h-128zM512 512v128h128v-128h-128z" />
<glyph unicode="X" d="M0 0v128h384v128h128v-128h384v128h-128v128h-128v128h128v128h128v128h128v-256h-128v-256h128v-256h-1024zM0 512v128h128v-128h128v-128h-128v128h-128zM384 640v128h128v-128h-128z" />
<glyph unicode="Y" d="M0 384v128h128v-128h128v-128h-128v128h-128zM256 0v128h384v256h128v128h128v256h128v-384h-128v-128h-128v-256h-512zM256 640v128h128v-128h128v-128h-128v128h-128z" />
<glyph unicode="Z" d="M0 0v128h896v128h128v-256h-1024zM0 512v128h384v-128h-384zM512 256v128h128v128h128v128h128v128h128v-256h-128v-128h-128v-128h-256z" />
<glyph unicode="a" d="M0 0v128h384v128h128v-128h384v512h-128v128h128v-128h128v-640h-1024zM384 384v256h128v-256h-128z" />
<glyph unicode="b" d="M0 0v128h768v128h128v128h-128v128h128v128h-128v128h128v-128h128v-512h-128v-128h-896zM384 256v128h128v-128h-128zM384 512v128h128v-128h-128z" />
<glyph unicode="c" d="M0 128v128h128v-128h640v128h128v128h-384v-128h-128v384h128v-128h384v128h-128v128h128v-128h128v-512h-128v-128h-768v128h-128z" />
<glyph unicode="d" d="M0 0v128h768v128h128v384h-128v128h128v-128h128v-512h-128v-128h-896zM384 256v384h128v-384h-128z" />
<glyph unicode="e" d="M0 0v128h896v128h-512v128h384v128h-384v128h512v128h128v-256h-128v-256h128v-256h-1024z" />
<glyph unicode="f" d="M0 0v128h384v256h384v128h-384v128h512v128h128v-256h-128v-256h-384v-256h-512z" />
<glyph unicode="g" d="M0 128v128h128v-128h640v128h128v256h-384v-128h128v-128h-256v384h384v128h128v-128h128v-512h-128v-128h-768v128h-128z" />
<glyph unicode="h" d="M0 0v128h384v256h128v-256h384v640h128v-768h-1024zM384 512v256h128v-256h-128z" />
<glyph unicode="i" horiz-adv-x="512" d="M0 0v128h384v640h128v-768h-512z" />
<glyph unicode="j" d="M0 128v128h128v-128h640v128h128v512h128v-640h-128v-128h-768v128h-128zM384 256v128h128v-128h-128z" />
<glyph unicode="k" d="M0 0v128h384v128h128v-128h384v128h-128v128h-128v128h128v128h128v128h128v-256h-128v-256h128v-256h-1024zM384 640v128h128v-128h-128z" />
<glyph unicode="l" d="M0 0v128h896v128h128v-256h-1024zM384 256v512h128v-512h-128z" />
<glyph unicode="m" d="M0 0v128h256v256h128v-128h128v128h128v-256h256v640h128v-768h-384v128h-256v-128h-384zM256 640v128h128v-128h128v-128h-128v128h-128z" />
<glyph unicode="n" d="M0 0v128h256v256h128v-128h256v-128h256v640h128v-768h-384v128h-256v-128h-384zM256 640v128h128v-128h-128zM512 512v128h128v-128h-128z" />
<glyph unicode="o" d="M0 128v128h128v-128h640v128h128v384h-128v128h128v-128h128v-512h-128v-128h-768v128h-128zM384 256v384h128v-384h-128z" />
<glyph unicode="p" d="M0 0v128h384v128h384v128h128v256h-128v128h128v-128h128v-384h-128v-128h-384v-128h-512zM384 384v256h128v-256h-128z" />
<glyph unicode="q" d="M0 128v128h384v-128h512v128h-128v128h128v256h-128v128h128v-128h128v-640h-640v128h-384zM384 384v256h128v-256h-128z" />
<glyph unicode="r" d="M0 0v128h384v128h128v-128h384v128h-128v128h128v256h-128v128h128v-128h128v-640h-1024zM384 384v256h128v-256h-128z" />
<glyph unicode="s" d="M0 0v128h768v128h128v128h-128v128h-384v128h512v128h128v-256h-128v-128h128v-256h-128v-128h-896zM0 384v128h128v-128h384v-128h-384v128h-128z" />
<glyph unicode="t" d="M0 512v128h256v-128h-256zM128 0v128h640v128h-128v384h256v128h128v-256h-256v-256h128v-256h-768z" />
<glyph unicode="u" d="M0 128v128h128v-128h640v128h128v512h128v-640h-128v-128h-768v128h-128zM384 256v512h128v-512h-128z" />
<glyph unicode="v" d="M0 256v128h128v-128h128v-128h384v128h128v128h128v384h128v-512h-128v-128h-128v-128h-512v128h-128v128h-128zM384 384v384h128v-384h-128z" />
<glyph unicode="w" d="M0 128v128h128v-128h256v128h128v-128h256v128h128v512h128v-640h-128v-128h-768v128h-128zM256 512v256h128v-256h-128zM512 512v128h128v-128h-128z" />
<glyph unicode="x" d="M0 0v128h384v128h128v-128h384v128h-128v128h-128v128h128v128h128v128h128v-256h-128v-256h128v-256h-1024zM0 512v128h128v-128h128v-128h-128v128h-128zM384 640v128h128v-128h-128z" />
<glyph unicode="y" d="M0 384v128h128v-128h128v-128h-128v128h-128zM256 0v128h384v256h128v128h128v256h128v-384h-128v-128h-128v-256h-512zM256 640v128h128v-128h128v-128h-128v128h-128z" />
<glyph unicode="z" d="M0 0v128h896v128h128v-256h-1024zM0 512v128h384v-128h-384zM512 256v128h128v128h128v128h128v128h128v-256h-128v-128h-128v-128h-256z" />
<glyph unicode="&#xc1;" d="M0 0v128h384v128h128v-128h384v512h-128v128h128v-128h128v-640h-1024zM384 384v256h128v-256h-128z" />
<glyph unicode="&#xc2;" d="M0 0v128h384v128h128v-128h384v512h-128v128h128v-128h128v-640h-1024zM384 384v256h128v-256h-128z" />
<glyph unicode="&#xc4;" d="M0 0v128h384v128h128v-128h384v512h-128v128h128v-128h128v-640h-1024zM384 384v256h128v-256h-128z" />
<glyph unicode="&#xc7;" d="M0 128v128h128v-128h640v128h128v128h-384v-128h-128v384h128v-128h384v128h-128v128h128v-128h128v-512h-128v-128h-768v128h-128z" />
<glyph unicode="&#xc9;" d="M0 0v128h896v128h-512v128h384v128h-384v128h512v128h128v-256h-128v-256h128v-256h-1024z" />
<glyph unicode="&#xcb;" d="M0 0v128h896v128h-512v128h384v128h-384v128h512v128h128v-256h-128v-256h128v-256h-1024z" />
<glyph unicode="&#xcd;" horiz-adv-x="512" d="M0 0v128h384v640h128v-768h-512z" />
<glyph unicode="&#xce;" horiz-adv-x="512" d="M0 0v128h384v640h128v-768h-512z" />
<glyph unicode="&#xd3;" d="M0 128v128h128v-128h640v128h128v384h-128v128h128v-128h128v-512h-128v-128h-768v128h-128zM384 256v384h128v-384h-128z" />
<glyph unicode="&#xd4;" d="M0 128v128h128v-128h640v128h128v384h-128v128h128v-128h128v-512h-128v-128h-768v128h-128zM384 256v384h128v-384h-128z" />
<glyph unicode="&#xd6;" d="M0 128v128h128v-128h640v128h128v384h-128v128h128v-128h128v-512h-128v-128h-768v128h-128zM384 256v384h128v-384h-128z" />
<glyph unicode="&#xda;" d="M0 128v128h128v-128h640v128h128v512h128v-640h-128v-128h-768v128h-128zM384 256v512h128v-512h-128z" />
<glyph unicode="&#xdc;" d="M0 128v128h128v-128h640v128h128v512h128v-640h-128v-128h-768v128h-128zM384 256v512h128v-512h-128z" />
<glyph unicode="&#xdd;" d="M0 384v128h128v-128h128v-128h-128v128h-128zM256 0v128h384v256h128v128h128v256h128v-384h-128v-128h-128v-256h-512zM256 640v128h128v-128h128v-128h-128v128h-128z" />
<glyph unicode="&#xe1;" d="M0 0v128h384v128h128v-128h384v512h-128v128h128v-128h128v-640h-1024zM384 384v256h128v-256h-128z" />
<glyph unicode="&#xe2;" d="M0 0v128h384v128h128v-128h384v512h-128v128h128v-128h128v-640h-1024zM384 384v256h128v-256h-128z" />
<glyph unicode="&#xe4;" d="M0 0v128h384v128h128v-128h384v512h-128v128h128v-128h128v-640h-1024zM384 384v256h128v-256h-128z" />
<glyph unicode="&#xe7;" d="M0 128v128h128v-128h640v128h128v128h-384v-128h-128v384h128v-128h384v128h-128v128h128v-128h128v-512h-128v-128h-768v128h-128z" />
<glyph unicode="&#xe9;" d="M0 0v128h896v128h-512v128h384v128h-384v128h512v128h128v-256h-128v-256h128v-256h-1024z" />
<glyph unicode="&#xeb;" d="M0 0v128h896v128h-512v128h384v128h-384v128h512v128h128v-256h-128v-256h128v-256h-1024z" />
<glyph unicode="&#xed;" horiz-adv-x="512" d="M0 0v128h384v640h128v-768h-512z" />
<glyph unicode="&#xee;" horiz-adv-x="512" d="M0 0v128h384v640h128v-768h-512z" />
<glyph unicode="&#xf3;" d="M0 128v128h128v-128h640v128h128v384h-128v128h128v-128h128v-512h-128v-128h-768v128h-128zM384 256v384h128v-384h-128z" />
<glyph unicode="&#xf4;" d="M0 128v128h128v-128h640v128h128v384h-128v128h128v-128h128v-512h-128v-128h-768v128h-128zM384 256v384h128v-384h-128z" />
<glyph unicode="&#xf6;" d="M0 128v128h128v-128h640v128h128v384h-128v128h128v-128h128v-512h-128v-128h-768v128h-128zM384 256v384h128v-384h-128z" />
<glyph unicode="&#xfa;" d="M0 128v128h128v-128h640v128h128v512h128v-640h-128v-128h-768v128h-128zM384 256v512h128v-512h-128z" />
<glyph unicode="&#xfc;" d="M0 128v128h128v-128h640v128h128v512h128v-640h-128v-128h-768v128h-128zM384 256v512h128v-512h-128z" />
<glyph unicode="&#xfd;" d="M0 384v128h128v-128h128v-128h-128v128h-128zM256 0v128h384v256h128v128h128v256h128v-384h-128v-128h-128v-256h-512zM256 640v128h128v-128h128v-128h-128v128h-128z" />
<glyph unicode="&#x2000;" horiz-adv-x="682" />
<glyph unicode="&#x2001;" horiz-adv-x="1365" />
<glyph unicode="&#x2002;" horiz-adv-x="682" />
<glyph unicode="&#x2003;" horiz-adv-x="1365" />
<glyph unicode="&#x2004;" horiz-adv-x="455" />
<glyph unicode="&#x2005;" horiz-adv-x="341" />
<glyph unicode="&#x2006;" horiz-adv-x="227" />
<glyph unicode="&#x2007;" horiz-adv-x="227" />
<glyph unicode="&#x2008;" horiz-adv-x="170" />
<glyph unicode="&#x2009;" horiz-adv-x="273" />
<glyph unicode="&#x200a;" horiz-adv-x="75" />
<glyph unicode="&#x202f;" horiz-adv-x="273" />
<glyph unicode="&#x205f;" horiz-adv-x="341" />
<glyph unicode="&#x25fc;" horiz-adv-x="770" d="M0 0v770h770v-770h-770z" />
</font>
</defs>
</svg>
